<mxfile host="app.diagrams.net" agent="Mozilla/5.0 (Macintosh; Intel Mac OS X 10_15_7) AppleWebKit/537.36 (KHTML, like Gecko) Chrome/133.0.0.0 Safari/537.36" version="26.1.1">
  <diagram name="Page-1" id="Ceuv1nwnXjjKkNiY4Pq4">
    <mxGraphModel dx="1357" dy="651" grid="1" gridSize="10" guides="1" tooltips="1" connect="1" arrows="1" fold="1" page="1" pageScale="1" pageWidth="850" pageHeight="1100" math="0" shadow="0">
      <root>
        <mxCell id="0" />
        <mxCell id="1" parent="0" />
        <mxCell id="dPXx-TJkejP0J8Z3yrKq-1" value="client" style="rounded=1;whiteSpace=wrap;html=1;" vertex="1" parent="1">
          <mxGeometry x="170" y="150" width="120" height="60" as="geometry" />
        </mxCell>
        <mxCell id="dPXx-TJkejP0J8Z3yrKq-2" value="Signal&lt;div&gt;Server&lt;/div&gt;" style="rounded=1;whiteSpace=wrap;html=1;" vertex="1" parent="1">
          <mxGeometry x="170" y="300" width="120" height="60" as="geometry" />
        </mxCell>
        <mxCell id="dPXx-TJkejP0J8Z3yrKq-3" value="Media&lt;div&gt;Server&lt;/div&gt;" style="rounded=1;whiteSpace=wrap;html=1;" vertex="1" parent="1">
          <mxGeometry x="170" y="410" width="120" height="60" as="geometry" />
        </mxCell>
        <mxCell id="dPXx-TJkejP0J8Z3yrKq-4" value="client" style="rounded=1;whiteSpace=wrap;html=1;" vertex="1" parent="1">
          <mxGeometry x="335" y="150" width="120" height="60" as="geometry" />
        </mxCell>
        <mxCell id="dPXx-TJkejP0J8Z3yrKq-5" value="client" style="rounded=1;whiteSpace=wrap;html=1;" vertex="1" parent="1">
          <mxGeometry x="500" y="150" width="120" height="60" as="geometry" />
        </mxCell>
        <mxCell id="dPXx-TJkejP0J8Z3yrKq-6" value="" style="rounded=0;whiteSpace=wrap;html=1;" vertex="1" parent="1">
          <mxGeometry x="170" y="240" width="450" height="30" as="geometry" />
        </mxCell>
        <mxCell id="dPXx-TJkejP0J8Z3yrKq-7" value="Signal&lt;div&gt;Server&lt;/div&gt;" style="rounded=1;whiteSpace=wrap;html=1;" vertex="1" parent="1">
          <mxGeometry x="335" y="300" width="120" height="60" as="geometry" />
        </mxCell>
        <mxCell id="dPXx-TJkejP0J8Z3yrKq-8" value="Media&lt;div&gt;Server&lt;/div&gt;" style="rounded=1;whiteSpace=wrap;html=1;" vertex="1" parent="1">
          <mxGeometry x="335" y="410" width="120" height="60" as="geometry" />
        </mxCell>
        <mxCell id="dPXx-TJkejP0J8Z3yrKq-11" value="" style="endArrow=none;html=1;rounded=0;entryX=0.5;entryY=1;entryDx=0;entryDy=0;exitX=0.133;exitY=-0.067;exitDx=0;exitDy=0;exitPerimeter=0;" edge="1" parent="1" source="dPXx-TJkejP0J8Z3yrKq-6" target="dPXx-TJkejP0J8Z3yrKq-1">
          <mxGeometry width="50" height="50" relative="1" as="geometry">
            <mxPoint x="400" y="360" as="sourcePoint" />
            <mxPoint x="450" y="310" as="targetPoint" />
          </mxGeometry>
        </mxCell>
        <mxCell id="dPXx-TJkejP0J8Z3yrKq-12" value="" style="endArrow=none;html=1;rounded=0;exitX=0.5;exitY=0;exitDx=0;exitDy=0;" edge="1" parent="1" source="dPXx-TJkejP0J8Z3yrKq-6" target="dPXx-TJkejP0J8Z3yrKq-4">
          <mxGeometry width="50" height="50" relative="1" as="geometry">
            <mxPoint x="400" y="360" as="sourcePoint" />
            <mxPoint x="450" y="310" as="targetPoint" />
          </mxGeometry>
        </mxCell>
        <mxCell id="dPXx-TJkejP0J8Z3yrKq-13" value="" style="endArrow=none;html=1;rounded=0;exitX=0.869;exitY=0;exitDx=0;exitDy=0;entryX=0.5;entryY=1;entryDx=0;entryDy=0;exitPerimeter=0;" edge="1" parent="1" source="dPXx-TJkejP0J8Z3yrKq-6" target="dPXx-TJkejP0J8Z3yrKq-5">
          <mxGeometry width="50" height="50" relative="1" as="geometry">
            <mxPoint x="405" y="250" as="sourcePoint" />
            <mxPoint x="405" y="220" as="targetPoint" />
          </mxGeometry>
        </mxCell>
        <mxCell id="dPXx-TJkejP0J8Z3yrKq-14" value="MySQL" style="shape=cylinder3;whiteSpace=wrap;html=1;boundedLbl=1;backgroundOutline=1;size=15;" vertex="1" parent="1">
          <mxGeometry x="540" y="403" width="60" height="60" as="geometry" />
        </mxCell>
        <mxCell id="dPXx-TJkejP0J8Z3yrKq-15" value="Redis" style="shape=cylinder3;whiteSpace=wrap;html=1;boundedLbl=1;backgroundOutline=1;size=15;" vertex="1" parent="1">
          <mxGeometry x="540" y="300" width="60" height="60" as="geometry" />
        </mxCell>
        <mxCell id="dPXx-TJkejP0J8Z3yrKq-17" value="" style="endArrow=classic;startArrow=classic;html=1;rounded=0;entryX=0;entryY=0.5;entryDx=0;entryDy=0;exitX=0;exitY=0.5;exitDx=0;exitDy=0;strokeColor=#FF9933;dashed=1;strokeWidth=2;" edge="1" parent="1" source="dPXx-TJkejP0J8Z3yrKq-3" target="dPXx-TJkejP0J8Z3yrKq-1">
          <mxGeometry width="50" height="50" relative="1" as="geometry">
            <mxPoint x="400" y="360" as="sourcePoint" />
            <mxPoint x="450" y="310" as="targetPoint" />
            <Array as="points">
              <mxPoint x="110" y="380" />
              <mxPoint x="110" y="310" />
              <mxPoint x="110" y="220" />
            </Array>
          </mxGeometry>
        </mxCell>
        <mxCell id="dPXx-TJkejP0J8Z3yrKq-18" value="" style="endArrow=none;html=1;rounded=0;entryX=0;entryY=0.5;entryDx=0;entryDy=0;entryPerimeter=0;exitX=1;exitY=0.5;exitDx=0;exitDy=0;" edge="1" parent="1" source="dPXx-TJkejP0J8Z3yrKq-7" target="dPXx-TJkejP0J8Z3yrKq-15">
          <mxGeometry width="50" height="50" relative="1" as="geometry">
            <mxPoint x="460" y="330" as="sourcePoint" />
            <mxPoint x="450" y="310" as="targetPoint" />
          </mxGeometry>
        </mxCell>
        <mxCell id="dPXx-TJkejP0J8Z3yrKq-22" value="" style="endArrow=none;html=1;rounded=0;entryX=0;entryY=0;entryDx=0;entryDy=37.5;entryPerimeter=0;exitX=1;exitY=0.75;exitDx=0;exitDy=0;" edge="1" parent="1" source="dPXx-TJkejP0J8Z3yrKq-7" target="dPXx-TJkejP0J8Z3yrKq-14">
          <mxGeometry width="50" height="50" relative="1" as="geometry">
            <mxPoint x="460" y="440" as="sourcePoint" />
            <mxPoint x="450" y="310" as="targetPoint" />
          </mxGeometry>
        </mxCell>
      </root>
    </mxGraphModel>
  </diagram>
</mxfile>
